<svg width="35" height="38" viewBox="0 0 35 38" fill="none" xmlns="http://www.w3.org/2000/svg">
<path d="M11.7067 30.5962C11.7067 30.7533 11.5444 30.879 11.3397 30.879C11.1069 30.9026 10.9446 30.7769 10.9446 30.5962C10.9446 30.439 11.1069 30.3133 11.3115 30.3133C11.5232 30.2897 11.7067 30.4155 11.7067 30.5962ZM9.5121 30.2426C9.4627 30.3997 9.60383 30.5805 9.81553 30.6276C9.99899 30.7062 10.2107 30.6276 10.253 30.4705C10.2954 30.3133 10.1613 30.1326 9.9496 30.0619C9.76613 30.0069 9.56149 30.0854 9.5121 30.2426ZM12.631 30.109C12.4264 30.164 12.2853 30.3133 12.3065 30.494C12.3276 30.6512 12.5111 30.7533 12.7228 30.6983C12.9274 30.6433 13.0685 30.494 13.0474 30.3369C13.0262 30.1876 12.8357 30.0854 12.631 30.109ZM17.2742 -0.000976562C7.4869 -0.000976562 0 8.27298 0 19.1714C0 27.8853 4.9254 35.3421 11.9607 37.9665C12.8639 38.1472 13.1815 37.5265 13.1815 37.0158C13.1815 36.5286 13.1603 33.8413 13.1603 32.1912C13.1603 32.1912 8.22077 33.3699 7.18347 29.8497C7.18347 29.8497 6.37903 27.5632 5.22177 26.9739C5.22177 26.9739 3.60585 25.7402 5.33468 25.7638C5.33468 25.7638 7.09173 25.921 8.05847 27.791C9.60383 30.824 12.1935 29.9519 13.2026 29.4333C13.3649 28.1761 13.8236 27.3039 14.3317 26.7853C10.3871 26.2981 6.40726 25.6617 6.40726 18.1027C6.40726 15.9419 6.94355 14.8576 8.07258 13.4747C7.88911 12.9639 7.28931 10.8581 8.25605 8.13941C9.73085 7.62867 13.125 10.2609 13.125 10.2609C14.5363 9.82091 16.0534 9.59305 17.5565 9.59305C19.0595 9.59305 20.5766 9.82091 21.9879 10.2609C21.9879 10.2609 25.3821 7.62081 26.8569 8.13941C27.8236 10.866 27.2238 12.9639 27.0403 13.4747C28.1694 14.8654 28.8609 15.9498 28.8609 18.1027C28.8609 25.6852 24.7046 26.2903 20.7601 26.7853C21.4093 27.406 21.9597 28.5847 21.9597 30.4312C21.9597 33.0791 21.9385 36.3557 21.9385 37C21.9385 37.5108 22.2631 38.1315 23.1593 37.9508C30.2157 35.3421 35 27.8853 35 19.1714C35 8.27298 27.0615 -0.000976562 17.2742 -0.000976562ZM6.85887 27.0996C6.76714 27.1782 6.78831 27.3589 6.90827 27.5082C7.02117 27.6339 7.18347 27.6889 7.2752 27.5867C7.36694 27.5082 7.34577 27.3274 7.22581 27.1782C7.1129 27.0524 6.9506 26.9974 6.85887 27.0996ZM6.09677 26.4631C6.04738 26.5653 6.11794 26.691 6.25907 26.7696C6.37198 26.8481 6.5131 26.8246 6.5625 26.7146C6.6119 26.6124 6.54133 26.4867 6.4002 26.4081C6.25907 26.361 6.14617 26.3845 6.09677 26.4631ZM8.38306 29.2604C8.27016 29.3625 8.3125 29.5983 8.4748 29.7476C8.6371 29.9283 8.84173 29.9519 8.93347 29.8261C9.0252 29.724 8.98286 29.4883 8.84173 29.339C8.68649 29.1582 8.4748 29.1347 8.38306 29.2604ZM7.57863 28.1053C7.46573 28.1839 7.46573 28.3882 7.57863 28.5689C7.69153 28.7497 7.88206 28.8282 7.97379 28.7497C8.08669 28.6475 8.08669 28.4432 7.97379 28.2625C7.875 28.0818 7.69153 28.0032 7.57863 28.1053Z" fill="#05DAC0"/>
</svg>
