<svg width="34" height="38" viewBox="0 0 34 38" fill="none" xmlns="http://www.w3.org/2000/svg">
<path d="M7.61054 37.9985H0.561607V12.6282H7.61054V37.9985ZM4.08228 9.16746C1.82826 9.16746 0 7.08083 0 4.56161C1.61333e-08 3.35154 0.430096 2.19103 1.19567 1.33537C1.96125 0.479723 2.99959 -0.000976563 4.08228 -0.000976562C5.16496 -0.000976563 6.20331 0.479723 6.96888 1.33537C7.73446 2.19103 8.16455 3.35154 8.16455 4.56161C8.16455 7.08083 6.33554 9.16746 4.08228 9.16746ZM33.9924 37.9985H26.9587V25.6484C26.9587 22.7051 26.9055 18.9305 23.2938 18.9305C19.6289 18.9305 19.0673 22.1283 19.0673 25.4364V37.9985H12.026V12.6282H18.7865V16.089H18.8852C19.8262 14.0956 22.125 11.992 25.5546 11.992C32.6886 11.992 34 17.2425 34 24.0622V37.9985H33.9924Z" fill="#05DAC0"/>
</svg>
