<svg width="42" height="38" viewBox="0 0 42 38" fill="none" xmlns="http://www.w3.org/2000/svg">
<path d="M37.6828 9.47016C37.7095 9.88576 37.7095 10.3014 37.7095 10.717C37.7095 23.3934 29.0484 37.9995 13.2183 37.9995C8.34138 37.9995 3.81094 36.426 0 33.6949C0.692921 33.7839 1.3591 33.8136 2.07868 33.8136C6.10274 33.8136 9.80712 32.2996 12.7653 29.7168C8.98098 29.6278 5.80964 26.8669 4.71698 23.0669C5.25002 23.1559 5.78298 23.2153 6.34268 23.2153C7.1155 23.2153 7.8884 23.0965 8.6079 22.8888C4.66374 21.9981 1.70552 18.1388 1.70552 13.4779V13.3592C2.85142 14.0717 4.18402 14.517 5.59636 14.5763C3.27782 12.8544 1.75884 9.91545 1.75884 6.59047C1.75884 4.80928 2.18516 3.17649 2.9314 1.7515C7.16874 7.57017 13.5381 11.3701 20.6802 11.7857C20.5469 11.0732 20.467 10.3311 20.467 9.58895C20.467 4.30458 24.3046 0 29.0749 0C31.5533 0 33.7918 1.15779 35.3642 3.02808C37.3096 2.61249 39.1751 1.81089 40.8274 0.712496C40.1878 2.93908 38.8287 4.80937 37.0432 5.99677C38.7754 5.78906 40.4544 5.25458 42 4.51247C40.8276 6.41237 39.3618 8.10447 37.6828 9.47016Z" fill="#05DAC0"/>
</svg>
